# xmcd
#
# Track frame offsets:
#	150
#	20385
#	37985
#	55752
#	76900
#	97280
#	114575
#	131962
#	153812
#	171072
#	189062
#	208635
#
# Disc length: 3023 seconds
#
# Revision: 4
# Processed by: cddbd v1.5.2PL0 Copyright (c) Steve Scherf et al.
# Submitted via: EasyCDDAExtractor 2011.0.0.0
#
DISCID=930bcd0c
DTITLE=소찬휘 - tears...
DYEAR=0
DGENRE=K -pop
TTITLE0=지각
TTITLE1=고백
TTITLE2=tears
TTITLE3=용서
TTITLE4=비 그리고 나
TTITLE5=여우사이
TTITLE6=밀랍인형
TTITLE7=save me
TTITLE8=rain
TTITLE9=heart breaker
TTITLE10=이젠 울지마
TTITLE11=일엽락
EXTD=
EXTT0=
EXTT1=
EXTT2=
EXTT3=
EXTT4=
EXTT5=
EXTT6=
EXTT7=
EXTT8=
EXTT9=
EXTT10=
EXTT11=
PLAYORDER=
